<svg width="14" height="15" viewBox="0 0 14 15" fill="none" xmlns="http://www.w3.org/2000/svg">
<path opacity="0.5" fill-rule="evenodd" clip-rule="evenodd" d="M0.000244141 3C0.000244141 2.20435 0.316315 1.44129 0.878924 0.87868C1.44153 0.316071 2.20459 0 3.00024 0H13.0002C13.186 0 13.368 0.0517147 13.526 0.149349C13.684 0.246984 13.8116 0.386681 13.8947 0.552786C13.9777 0.718892 14.0129 0.904844 13.9962 1.08981C13.9795 1.27477 13.9117 1.45143 13.8002 1.6L11.2502 5L13.8002 8.4C13.9117 8.54857 13.9795 8.72523 13.9962 8.91019C14.0129 9.09516 13.9777 9.28111 13.8947 9.44721C13.8116 9.61332 13.684 9.75302 13.526 9.85065C13.368 9.94829 13.186 10 13.0002 10H3.00024C2.73503 10 2.48067 10.1054 2.29314 10.2929C2.1056 10.4804 2.00024 10.7348 2.00024 11V14C2.00024 14.2652 1.89489 14.5196 1.70735 14.7071C1.51981 14.8946 1.26546 15 1.00024 15C0.735028 15 0.480674 14.8946 0.293137 14.7071C0.105601 14.5196 0.000244141 14.2652 0.000244141 14V3Z" fill="#6E7C87"/>
</svg>
